<svg width="56" height="136" viewBox="0 0 56 136" fill="none" xmlns="http://www.w3.org/2000/svg">
  <path d="M43.585 98.5442L46.8111 96.6812" stroke="#2B5859" stroke-width="2" stroke-miterlimit="10"/>
  <path d="M46.8109 96.681C46.8109 123.336 41.2492 134.823 28.9624 134.823C18.466 134.823 2.95312 117.637 2.95312 75.0883L6.17929 73.2253L46.8109 96.681Z" stroke="#2B5859" stroke-width="2" stroke-miterlimit="10"/>
  <path d="M43.5852 98.5442C43.5852 114.184 41.2496 134.823 28.9629 134.823" stroke="#2B5859" stroke-width="2" stroke-miterlimit="10"/>
  <path d="M49.0196 90.774L5.66164 65.7371L1.63574 68.0726V74.1251L45.0028 99.162L49.0196 96.8265V90.774Z" fill="#E3FFD0" stroke="#2B5859" stroke-width="2" stroke-miterlimit="10"/>
  <path d="M49.0196 90.774L45.0028 93.1096L1.63574 68.0726" stroke="#2B5859" stroke-width="2" stroke-miterlimit="10"/>
  <path d="M45.0029 93.1096V99.1621" stroke="#2B5859" stroke-width="2" stroke-miterlimit="10"/>
  <path d="M29.7354 58.2214C29.7354 58.2214 27.8179 56.3312 24.7735 56.3312C21.7291 56.3312 19.8115 58.2214 19.8115 58.2214V79.0507C19.8115 79.0507 21.7291 80.941 24.7735 80.941C27.8179 80.941 29.7354 79.0507 29.7354 79.0507V58.2214Z" fill="#7AC942" stroke="#2B5859" stroke-width="2" stroke-miterlimit="10"/>
  <path d="M29.7354 58.2214C29.7354 58.2214 27.8179 60.1117 24.7735 60.1117C21.7291 60.1117 19.8115 58.2214 19.8115 58.2214" stroke="#2B5859" stroke-width="2" stroke-miterlimit="10"/>
  <path d="M20.874 58.6214C20.874 58.6214 22.3826 60.1027 24.7727 60.1027C27.1628 60.1027 28.6714 58.6214 28.6714 58.6214V31.1307C28.6714 31.1307 27.1628 32.6121 24.7727 32.6121C22.3826 32.6121 20.874 31.1307 20.874 31.1307V58.6214Z" fill="#7AC942" stroke="#2B5859" stroke-width="2" stroke-miterlimit="10"/>
  <path d="M27.3627 88.9745C27.3627 88.9745 27.5808 103.097 26.1904 122.009C26.1268 122.872 24.909 122.981 24.6909 122.145C23.3005 116.783 21.2012 105.36 21.2012 85.4121" stroke="#2B5859" stroke-width="2" stroke-miterlimit="10"/>
  <path d="M31.0254 17.1082L34.2334 15.2543" stroke="#2B5859" stroke-width="2" stroke-miterlimit="10"/>
  <path d="M34.2337 15.2543C34.2337 26.6504 32.407 32.612 24.7824 32.612C20.293 32.612 13.668 25.2691 13.668 7.0753L16.8669 5.23047L34.2337 15.2543Z" stroke="#2B5859" stroke-width="2" stroke-miterlimit="10"/>
  <path d="M31.0258 17.1082C31.0258 23.7968 30.0262 32.621 24.7734 32.621" stroke="#2B5859" stroke-width="2" stroke-miterlimit="10"/>
  <path d="M35.2239 11.8827L16.6848 1.17725L12.668 3.49464V7.78408L31.2071 18.4895L35.2239 16.1721V11.8827Z" fill="#7AC942" stroke="#2B5859" stroke-width="2" stroke-miterlimit="10"/>
  <path d="M35.2239 11.8827L31.2071 14.2001L12.668 3.49463" stroke="#2B5859" stroke-width="2" stroke-miterlimit="10"/>
  <path d="M31.207 14.2001V18.4895" stroke="#2B5859" stroke-width="2" stroke-miterlimit="10"/>
  <path d="M17.1572 10.3741C17.1572 18.6622 21.483 33.7662 29.0804 29.4222" stroke="#2B5859" stroke-width="2" stroke-miterlimit="10"/>
  <path d="M49.8552 104.942C54.0901 102.724 55.6168 95.9267 53.2449 89.1381C50.7185 81.9133 44.7115 77.4421 39.8404 79.1415C39.5041 79.2596 35.4964 81.268 35.4964 81.268C31.2615 83.4855 29.7347 90.2832 32.1067 97.0718C34.6331 104.297 40.6401 108.768 45.5112 107.068L49.8552 104.942Z" fill="#7AC942" stroke="#2B5859" stroke-width="2" stroke-miterlimit="10"/>
  <path d="M45.5201 107.068C50.3912 105.36 52.2906 98.1261 49.7642 90.9012C47.2377 83.6764 40.9853 79.2688 36.1143 80.9774" stroke="#2B5859" stroke-width="2" stroke-miterlimit="10"/>
  <path d="M35.9512 85.8484L45.348 102.125" stroke="#2B5859" stroke-width="2" stroke-miterlimit="10" stroke-linecap="round"/>
  <path d="M45.3478 91.2737L35.6602 96.8718" stroke="#2B5859" stroke-width="2" stroke-miterlimit="10" stroke-linecap="round"/>
</svg>
