<svg width="98" height="132" viewBox="0 0 98 132" fill="none" xmlns="http://www.w3.org/2000/svg">
  <path d="M78.0569 36.8706L81.6872 34.7779V25.8339L73.3074 20.9934C73.9989 18.9644 73.9625 16.3349 73.0344 13.7054C71.3603 8.9104 67.375 5.94423 64.145 7.07247L60.5146 9.16516" fill="#E3FFD0"/>
  <path d="M78.0569 36.8706L81.6872 34.7779V25.8339L73.3074 20.9934C73.9989 18.9644 73.9625 16.3349 73.0344 13.7054C71.3603 8.9104 67.375 5.94423 64.145 7.07247L60.5146 9.16516" stroke="#2B5859" stroke-width="2" stroke-miterlimit="10"/>
  <path d="M57.6756 11.9676L52.6714 9.07422L49.041 11.176" fill="#E3FFD0"/>
  <path d="M57.6756 11.9676L52.6714 9.07422L49.041 11.176" stroke="#2B5859" stroke-width="2" stroke-miterlimit="10"/>
  <path d="M73.2981 20.9844L69.7041 22.977" stroke="#2B5859" stroke-width="2" stroke-miterlimit="10"/>
  <path d="M92.7419 37.1799C92.7419 81.0446 78.2387 85.4301 78.2387 129.295L20.2256 95.8026C20.2256 51.9379 34.7289 46.5697 34.7289 2.70508L92.7419 37.1799Z" fill="#E3FFD0" stroke="#2B5859" stroke-width="2" stroke-miterlimit="10"/>
  <path d="M78.056 36.8706V27.9266L69.658 23.077L69.7126 22.977C70.3677 20.9662 70.3131 18.373 69.4123 15.789C67.7382 10.994 63.7529 8.02785 60.5229 9.15609C59.2582 9.60192 58.2846 10.6119 57.6841 11.9585C57.2019 13.0321 56.9562 14.3332 56.9653 15.7344L49.0586 11.1669V20.1109L78.0651 36.8615L78.056 36.8706Z" fill="#E3FFD0" stroke="#2B5859" stroke-width="2" stroke-linecap="round" stroke-linejoin="round"/>
  <path d="M78.0566 27.9175L81.6779 25.8248" stroke="#2B5859" stroke-width="2" stroke-miterlimit="10"/>
  <path d="M37.3125 30.3105L83.9977 58.0524" stroke="#2B5859" stroke-width="2" stroke-miterlimit="10"/>
  <path d="M36.166 35.4331L82.8422 63.1749" stroke="#2B5859" stroke-width="2" stroke-miterlimit="10"/>
  <path d="M35.502 41.0469L82.1781 68.7887" stroke="#2B5859" stroke-width="2" stroke-miterlimit="10"/>
  <path d="M34.9834 46.3514L81.6595 74.0842" stroke="#2B5859" stroke-width="2" stroke-miterlimit="10"/>
  <path d="M33.6455 51.3649L80.3216 79.0976" stroke="#2B5859" stroke-width="2" stroke-miterlimit="10"/>
  <path d="M32.1895 56.3054L78.8656 84.0472" stroke="#2B5859" stroke-width="2" stroke-miterlimit="10"/>
  <path d="M30.4062 61.0549L77.0824 88.7877" stroke="#2B5859" stroke-width="2" stroke-miterlimit="10"/>
  <path d="M29.251 66.1775L75.9271 93.9102" stroke="#2B5859" stroke-width="2" stroke-miterlimit="10"/>
  <path d="M28.0957 71.3L74.7719 99.0328" stroke="#2B5859" stroke-width="2" stroke-miterlimit="10"/>
  <path d="M27.3223 76.6499L73.9984 104.383" stroke="#2B5859" stroke-width="2" stroke-miterlimit="10"/>
  <path d="M50.9971 27.8083L70.0224 39.1089" stroke="#2B5859" stroke-width="2" stroke-miterlimit="10"/>
  <path d="M91.6776 77.0684C96.2087 74.6937 97.8556 67.4148 95.308 60.1449C92.5966 52.4111 86.1729 47.6161 80.9594 49.4449C80.6045 49.5723 76.31 51.7287 76.31 51.7287C71.7788 54.1034 70.132 61.3824 72.6796 68.6522C75.391 76.386 81.8147 81.181 87.0282 79.3522L91.6776 77.0684Z" fill="#7AC942" stroke="#2B5859" stroke-width="2" stroke-miterlimit="10"/>
  <path d="M87.0374 79.3522C92.2509 77.5234 94.289 69.7713 91.5776 62.0375C88.8662 54.3036 82.1787 49.5814 76.9561 51.4102" stroke="#2B5859" stroke-width="2" stroke-miterlimit="10"/>
  <path d="M76.7832 56.6238L86.8463 74.0568" stroke="#2B5859" stroke-width="2" stroke-miterlimit="10" stroke-linecap="round"/>
  <path d="M86.8461 62.4379L76.4736 68.4248" stroke="#2B5859" stroke-width="2" stroke-miterlimit="10" stroke-linecap="round"/>
  <path d="M15.9945 68.3247L1.49121 77.8055L4.2845 76.1677V100.152L29.4969 114.71L41.2069 107.949C41.2069 100.088 41.6254 93.3642 42.3169 87.4046L18.3237 68.3247H15.9854H15.9945Z" fill="#7AC942" stroke="#2B5859" stroke-width="2" stroke-miterlimit="10"/>
  <path d="M29.5059 114.71V91.0896" stroke="#2B5859" stroke-width="2" stroke-miterlimit="10"/>
  <path d="M42.3263 87.4046C42.3263 87.4046 34.0102 69.9625 32.9274 58.5527L16.0039 68.3247L31 93.9998L42.3263 87.4046Z" fill="#7AC942" stroke="#2B5859" stroke-width="2" stroke-miterlimit="10"/>
  <path d="M21.4444 89.7701V101.134L11.5996 95.4568V84.0925L21.4444 89.7701Z" fill="#E3FFD0" stroke="#2B5859" stroke-width="2" stroke-miterlimit="10"/>
  <path d="M64.4088 20.3087C65.3336 19.9848 65.6942 18.6112 65.2142 17.2406C64.7343 15.8699 63.5954 15.0214 62.6706 15.3452C61.7458 15.6691 61.3852 17.0428 61.8652 18.4134C62.3452 19.784 63.484 20.6326 64.4088 20.3087Z" fill="#E3FFD0" stroke="#2B5859" stroke-width="2" stroke-miterlimit="10"/>
</svg>
