<svg width="84" height="117" viewBox="0 0 84 117" fill="none" xmlns="http://www.w3.org/2000/svg">
  <path d="M1.03223 16.4509L12.0739 10.0803C21.5889 13.0339 30.1768 11.3254 36.5201 8.77168L47.5255 2.31934C47.5255 2.31934 63.2565 34.1812 82.977 50.6301C82.977 50.6301 82.977 58.9909 82.977 78.666C82.977 98.3411 58.4945 115.672 36.4929 115.672C20.1802 97.1597 1.04131 71.0686 1.04131 44.4868C1.04131 24.8117 1.04131 30 1.04131 30L1.03223 16.4509Z" stroke="#2B5859" stroke-width="2" stroke-miterlimit="10"/>
  <path d="M6.83105 23.5758V50.5939C6.83105 65.3616 21.4988 88.6718 39.0292 109.728C45.0544 109.01 51.6612 105.63 56.814 100.522C62.8211 94.5698 66.129 92.3887 66.129 85.0276V59.6453C51.6976 46.7315 39.8198 26.9928 34.4126 17.178C28.5055 20.6677 18.627 24.8844 6.84014 23.5576L6.83105 23.5758Z" stroke="#2B5859" stroke-width="2" stroke-miterlimit="10"/>
  <path d="M26.5243 73.5589C27.6875 74.7949 29.9322 76.5579 29.9322 76.5579L33.501 81.0002L29.9322 86.5002L23.0255 85.0002L18.001 81.5002L15.9824 78.5002V72.8592L23.0255 68.7878C23.8434 70.3691 25.0066 71.9504 26.5243 73.5589Z" fill="#7AC942" stroke="#2B5859" stroke-width="2" stroke-linejoin="round"/>
  <path d="M14.1197 35.6354L14.1379 63.6622L14.2015 63.6986C15.9191 63.6895 17.4186 63.8258 18.6818 64.1348C19.945 64.4438 21.2809 64.989 22.6895 65.7979C24.1345 66.6339 25.3977 67.6972 26.461 68.9877C27.5243 70.2781 28.3422 71.6959 28.9147 73.2226C29.4781 74.7584 29.7689 76.3306 29.7689 77.9301C29.7689 79.3932 29.5054 80.4656 28.9601 81.1563C28.4149 81.8469 27.6969 82.1923 26.7881 82.165C25.8794 82.1468 24.907 81.8378 23.8619 81.238C22.4533 80.4292 20.9992 79.2206 19.4815 77.612C17.9639 76.0035 16.8006 74.4222 15.9827 72.8409L10.8936 78.648C12.3022 81.0199 14.2651 83.4827 16.8097 86.0546C19.3452 88.6264 21.9534 90.6803 24.6252 92.2252C27.4788 93.8701 30.0779 94.588 32.4044 94.379C34.74 94.1609 36.5848 93.1158 37.9389 91.2346L44.9819 87.1633C46.336 85.2821 47.0176 82.683 47.0176 79.3569C47.0176 76.3397 46.4178 73.2044 45.2364 69.9601C44.055 66.7157 42.301 63.7349 40.1654 60.8632C39.2566 59.6363 36.6121 59.1092 36.6121 59.1092L43.6551 55.0379V44.4869L21.1719 31.5459L14.1288 35.6172L14.1197 35.6354Z" fill="#7AC942" stroke="#2B5859" stroke-width="2" stroke-linejoin="round"/>
  <path d="M14.1191 35.6353L36.5933 48.5763V59.1272L22.6072 51.0664V56.7281C22.8344 56.828 23.0706 56.928 23.2887 57.0371C23.8795 57.3279 24.4702 57.6368 25.0518 57.9731C28.2234 59.7997 30.9043 62.1262 33.1036 64.9525C35.3028 67.7788 36.9932 70.8142 38.1746 74.0494C39.356 77.2847 39.9467 80.42 39.9558 83.4462C39.9558 86.7633 39.2833 89.3715 37.9201 91.2527" stroke="#2B5859" stroke-width="2" stroke-linejoin="round"/>
  <path d="M36.6025 48.5674L43.6456 44.5051" stroke="#2B5859" stroke-width="2" stroke-linejoin="round"/>
  <path d="M71.9268 57.0007L82.9684 50.6301" stroke="#2B5859" stroke-width="2" stroke-miterlimit="10"/>
  <path d="M36.4838 115.681C52.7964 115.826 71.9353 104.721 71.9353 85.0457C71.9353 65.3706 71.9353 57.0098 71.9353 57.0098C54.2141 42.233 39.719 15.015 36.9563 9.63504C36.711 9.16247 36.1021 9.02616 35.6841 9.35332C32.2489 12.0251 18.1446 21.7673 1.03223 16.46" stroke="#2B5859" stroke-width="2" stroke-miterlimit="10"/>
</svg>
