<svg width="192" height="129" viewBox="0 0 192 129" fill="none" xmlns="http://www.w3.org/2000/svg">
  <path d="M-9.17773 69.1308L17.621 53.6545L62.2826 79.4422L35.4838 94.9184L-9.17773 69.1308Z" stroke="#7AC942" stroke-miterlimit="10"/>
  <path d="M70.8994 22.9025L97.6982 7.42627L142.36 33.2139L115.561 48.681L70.8994 22.9025Z" stroke="#7AC942" stroke-miterlimit="10"/>
  <path d="M88.7627 79.5333L115.561 64.0662L160.223 89.8538L133.424 105.321L88.7627 79.5333Z" stroke="#7AC942" stroke-miterlimit="10"/>
  <path d="M48.8008 102.606L75.5995 87.1301L120.27 112.918L93.4714 128.394L48.8008 102.606Z" stroke="#7AC942" stroke-miterlimit="10"/>
  <path d="M128.879 56.3781L155.678 40.9019L200.339 66.6895L173.54 82.1657L128.879 56.3781Z" stroke="#7AC942" stroke-miterlimit="10"/>
  <path d="M75.628 25.6351L70.9004 22.9024L75.628 20.1697" stroke="#2B5859" stroke-width="2" stroke-miterlimit="10"/>
  <path d="M99.0928 39.1803L81.4941 29.0146" stroke="#2B5859" stroke-width="2" stroke-miterlimit="10" stroke-dasharray="14.87 14.87"/>
  <path d="M102.399 28.696L57.7372 2.91748L30.9385 18.3846V45.9667L75.6 71.7544L102.399 56.2781V28.696Z" fill="#E3FFD0" stroke="#2B5859" stroke-width="2" stroke-miterlimit="10"/>
  <path d="M75.5996 71.7543V44.072" stroke="#2B5859" stroke-width="2" stroke-miterlimit="10"/>
  <path d="M76.5745 46.2764L90.7937 31.0461C91.8503 29.9166 93.3442 29.3063 94.8928 29.3701L105.095 29.8164L57.0174 2.06123L46.8153 1.61489C45.2668 1.55113 43.7729 2.16143 42.7163 3.29095L28.4971 18.5212L76.5745 46.2764Z" fill="#7AC942" stroke="#2B5859" stroke-width="2" stroke-miterlimit="10"/>
  <path d="M42.7256 3.28174L90.803 31.046" stroke="#2B5859" stroke-width="2" stroke-miterlimit="10"/>
  <path d="M46.8242 1.60571L94.9017 29.37" stroke="#2B5859" stroke-width="2" stroke-miterlimit="10"/>
  <path d="M84.7275 45.8756V56.2234L93.6908 51.0495V40.7017L84.7275 45.8756Z" stroke="#2B5859" stroke-width="2" stroke-miterlimit="10"/>
  <path d="M57.8369 61.4065V40.7017L66.8002 45.8756V66.5804" stroke="#2B5859" stroke-width="2" stroke-miterlimit="10"/>
  <path d="M34.4453 40.4101L52.9002 51.0676V37.8504L34.4453 27.1929V40.4101Z" stroke="#2B5859" stroke-width="2" stroke-miterlimit="10"/>
  <path d="M76.5742 46.2764L90.8025 31.0461" stroke="#2B5859" stroke-miterlimit="10"/>
  <path d="M70.5713 42.8057L84.7905 27.5754" stroke="#2B5859" stroke-miterlimit="10"/>
  <path d="M64.5596 39.3353L78.7788 24.105" stroke="#2B5859" stroke-miterlimit="10"/>
  <path d="M58.5479 35.8648L72.7762 20.6345" stroke="#2B5859" stroke-miterlimit="10"/>
  <path d="M52.5361 32.3941L66.7644 17.1638" stroke="#2B5859" stroke-miterlimit="10"/>
  <path d="M46.5332 28.9236L60.7524 13.6934" stroke="#2B5859" stroke-miterlimit="10"/>
  <path d="M40.5205 25.4623L54.7397 10.2229" stroke="#2B5859" stroke-miterlimit="10"/>
  <path d="M34.5088 21.9916L48.7371 6.7522" stroke="#2B5859" stroke-miterlimit="10"/>
  <path d="M28.4971 18.5211L42.7254 3.28174" stroke="#2B5859" stroke-miterlimit="10"/>
  <path d="M94.9014 29.3701L105.103 29.8073" stroke="#2B5859" stroke-miterlimit="10"/>
  <path d="M88.8896 25.8994L99.0918 26.3366" stroke="#2B5859" stroke-miterlimit="10"/>
  <path d="M82.8779 22.429L93.08 22.8662" stroke="#2B5859" stroke-miterlimit="10"/>
  <path d="M76.875 18.9585L87.068 19.4048" stroke="#2B5859" stroke-miterlimit="10"/>
  <path d="M70.8633 15.4878L81.0563 15.9341" stroke="#2B5859" stroke-miterlimit="10"/>
  <path d="M64.8506 12.0173L75.0527 12.4637" stroke="#2B5859" stroke-miterlimit="10"/>
  <path d="M58.8389 8.54688L69.041 8.99322" stroke="#2B5859" stroke-miterlimit="10"/>
  <path d="M52.8359 5.07617L63.0289 5.52251" stroke="#2B5859" stroke-miterlimit="10"/>
  <path d="M46.8242 1.60571L57.0172 2.05205" stroke="#2B5859" stroke-miterlimit="10"/>
  <path d="M48.8009 56.4695L22.3301 71.7544" stroke="#2B5859" stroke-width="2" stroke-miterlimit="10"/>
  <path d="M22.3301 64.0664V71.7544H35.6475" stroke="#2B5859" stroke-width="2" stroke-miterlimit="10"/>
  <path d="M88.9268 64.0664L115.398 79.3513" stroke="#2B5859" stroke-width="2" stroke-miterlimit="10"/>
  <path d="M115.397 71.6633V79.3513H102.08" stroke="#2B5859" stroke-width="2" stroke-miterlimit="10"/>
  <path d="M102.398 56.2781L155.513 56.3783" stroke="#2B5859" stroke-width="2" stroke-miterlimit="10"/>
  <path d="M147.252 51.5959L155.513 56.3782L145.539 62.1351" stroke="#2B5859" stroke-width="2" stroke-miterlimit="10"/>
  <path d="M75.6006 71.7544V102.516" stroke="#2B5859" stroke-width="2" stroke-miterlimit="10"/>
  <path d="M66.8828 97.4783L75.6001 102.516L84.3266 97.4783" stroke="#2B5859" stroke-width="2" stroke-miterlimit="10"/>
</svg>
