<svg width="124" height="116" viewBox="0 0 124 116" fill="none" xmlns="http://www.w3.org/2000/svg">
  <path d="M113.47 41.2804L47.9213 3.44153L8.59766 26.1412V66.6217L74.1462 104.461L113.47 81.7518V41.2804Z" stroke="#2B5859" stroke-width="2" stroke-miterlimit="10"/>
  <path d="M74.1465 104.46V63.98" stroke="#2B5859" stroke-width="2" stroke-miterlimit="10"/>
  <path d="M75.3305 67.2046L96.1264 44.9331C97.6749 43.2752 99.8611 42.3825 102.12 42.4827L117.032 43.1295L46.7372 2.53966L31.8258 1.89292C29.5667 1.79272 27.3715 2.69452 25.832 4.34325L5.03613 26.6148L75.3305 67.2046Z" fill="#7AC942" stroke="#2B5859" stroke-width="2" stroke-miterlimit="10"/>
  <path d="M25.832 4.34326L96.1264 44.9331" stroke="#2B5859" stroke-width="2" stroke-miterlimit="10"/>
  <path d="M31.8262 1.89294L102.121 42.4828" stroke="#2B5859" stroke-width="2" stroke-miterlimit="10"/>
  <path d="M87.2539 66.6216V81.7517L100.362 74.1821V59.052L87.2539 66.6216Z" stroke="#2B5859" stroke-width="2" stroke-miterlimit="10"/>
  <path d="M87.2539 77.9715L97.0825 72.2966V60.9468" stroke="#2B5859" stroke-width="2" stroke-miterlimit="10"/>
  <path d="M47.9219 89.3213V59.052L61.0298 66.6216V96.8909" stroke="#2B5859" stroke-width="2" stroke-miterlimit="10"/>
  <path d="M100.362 74.1822L97.083 72.2966" stroke="#2B5859" stroke-width="2" stroke-miterlimit="10"/>
  <path d="M13.7266 58.6331L40.7166 74.2186V54.8893L13.7266 39.3037V58.6331Z" stroke="#2B5859" stroke-width="2" stroke-miterlimit="10"/>
  <path d="M13.7266 58.6331L17.0058 56.7384" stroke="#2B5859" stroke-width="2" stroke-miterlimit="10"/>
  <path d="M17.0059 41.1984V56.7384L40.7166 70.4292" stroke="#2B5859" stroke-width="2" stroke-miterlimit="10"/>
  <path d="M8.59807 64.0256L1.27441 68.2522V72.0416L74.1466 114.107L122.716 86.0604V82.2801L113.47 76.9331" stroke="#2B5859" stroke-width="2" stroke-miterlimit="10"/>
  <path d="M122.716 82.2801L74.1466 110.327L1.27441 68.2522" stroke="#2B5859" stroke-width="2" stroke-miterlimit="10"/>
  <path d="M75.3301 67.2047L96.126 44.9331" stroke="#2B5859" stroke-width="2" stroke-miterlimit="10"/>
  <path d="M66.54 62.1309L87.3451 39.8594" stroke="#2B5859" stroke-width="2" stroke-miterlimit="10"/>
  <path d="M57.7588 57.0572L78.5547 34.7856" stroke="#2B5859" stroke-width="2" stroke-miterlimit="10"/>
  <path d="M48.9688 51.9835L69.7647 29.7119" stroke="#2B5859" stroke-width="2" stroke-miterlimit="10"/>
  <path d="M40.1787 46.9097L60.9746 24.6382" stroke="#2B5859" stroke-width="2" stroke-miterlimit="10"/>
  <path d="M31.3975 41.836L52.1934 19.5645" stroke="#2B5859" stroke-width="2" stroke-miterlimit="10"/>
  <path d="M22.6074 36.7623L43.4033 14.4907" stroke="#2B5859" stroke-width="2" stroke-miterlimit="10"/>
  <path d="M13.8174 31.6886L34.6133 9.41699" stroke="#2B5859" stroke-width="2" stroke-miterlimit="10"/>
  <path d="M5.03613 26.6148L25.832 4.34326" stroke="#2B5859" stroke-width="2" stroke-miterlimit="10"/>
  <path d="M102.12 42.4827L117.032 43.1294" stroke="#2B5859" stroke-miterlimit="10"/>
  <path d="M93.3389 37.4091L108.25 38.0558" stroke="#2B5859" stroke-miterlimit="10"/>
  <path d="M84.5488 32.3353L99.4603 32.9821" stroke="#2B5859" stroke-miterlimit="10"/>
  <path d="M75.7588 27.2616L90.6703 27.9083" stroke="#2B5859" stroke-miterlimit="10"/>
  <path d="M66.9775 22.1879L81.889 22.8346" stroke="#2B5859" stroke-miterlimit="10"/>
  <path d="M58.1875 17.1141L73.099 17.7609" stroke="#2B5859" stroke-miterlimit="10"/>
  <path d="M49.3975 12.0404L64.3089 12.6871" stroke="#2B5859" stroke-miterlimit="10"/>
  <path d="M40.6162 6.96667L55.5277 7.61341" stroke="#2B5859" stroke-miterlimit="10"/>
  <path d="M31.8262 1.89294L46.7376 2.53969" stroke="#2B5859" stroke-miterlimit="10"/>
  <path d="M47.9219 89.3213L51.2011 87.4266V61.0742" stroke="#2B5859" stroke-width="2" stroke-miterlimit="10"/>
  <path d="M51.2012 87.4268L61.0298 93.1017" stroke="#2B5859" stroke-width="2" stroke-miterlimit="10"/>
  <path d="M14.018 78.0443C10.7843 79.1738 9.52722 83.9833 11.2033 88.7747C12.8793 93.566 16.8691 96.5447 20.1028 95.4061L23.7282 93.311C26.9619 92.1815 28.2189 87.3719 26.5429 82.5806C24.8668 77.7892 20.8771 74.8106 17.6434 75.9492L14.018 78.0443Z" fill="#7AC942" stroke="#2B5859" stroke-width="2" stroke-miterlimit="10"/>
  <path d="M20.0936 95.4152C23.3273 94.2857 24.5844 89.4762 22.9083 84.6848C21.2322 79.8935 17.2425 76.9148 14.0088 78.0534" stroke="#2B5859" stroke-width="2" stroke-miterlimit="10"/>
  <path d="M18.4871 90.8609C20.0017 90.3305 20.592 88.0799 19.8055 85.8341C19.019 83.5883 17.1536 82.1977 15.639 82.7281C14.1243 83.2585 13.5341 85.5091 14.3205 87.7549C15.107 90.0007 16.9724 91.3914 18.4871 90.8609Z" stroke="#2B5859" stroke-width="2" stroke-miterlimit="10"/>
  <path d="M30.3949 87.7818C27.1612 88.9113 25.9042 93.7209 27.5802 98.5122C29.2563 103.304 33.246 106.282 36.4797 105.144L40.1051 103.049C43.3388 101.919 44.5959 97.1094 42.9198 92.3181C41.2438 87.5268 37.254 84.5481 34.0203 85.6867L30.3949 87.7818Z" fill="#7AC942" stroke="#2B5859" stroke-width="2" stroke-miterlimit="10"/>
  <path d="M36.4803 105.144C39.714 104.014 40.9711 99.2047 39.295 94.4133C37.619 89.622 33.6292 86.6433 30.3955 87.7819" stroke="#2B5859" stroke-width="2" stroke-miterlimit="10"/>
  <path d="M34.8679 100.595C36.3825 100.065 36.9728 97.8143 36.1863 95.5685C35.3999 93.3227 33.5345 91.932 32.0198 92.4624C30.5052 92.9929 29.9149 95.2435 30.7014 97.4893C31.4879 99.7351 33.3533 101.126 34.8679 100.595Z" stroke="#2B5859" stroke-width="2" stroke-miterlimit="10"/>
  <path d="M74.1465 114.107V110.327" stroke="#2B5859" stroke-width="2" stroke-miterlimit="10"/>
  <path d="M102.057 111.447C101.146 111.447 100.408 110.709 100.408 109.798V97.9839C100.408 97.073 101.146 96.3352 102.057 96.3352C102.968 96.3352 103.706 97.073 103.706 97.9839V109.798C103.706 110.709 102.968 111.447 102.057 111.447Z" stroke="#2B5859" stroke-width="2" stroke-miterlimit="10"/>
  <path d="M104.489 105.071L95.5439 101.755V97.9659L102.822 93.7666L108.57 98.9314V102.712L104.489 105.071Z" fill="#7AC942" stroke="#2B5859" stroke-width="2" stroke-miterlimit="10"/>
  <path d="M104.488 105.071V101.282L108.569 98.9314" stroke="#2B5859" stroke-width="2" stroke-miterlimit="10"/>
  <path d="M95.5439 97.9658L104.489 101.282" stroke="#2B5859" stroke-width="2" stroke-miterlimit="10"/>
</svg>
