<svg width="126" height="104" viewBox="0 0 126 104" fill="none" xmlns="http://www.w3.org/2000/svg">
  <path d="M80.6021 1.78247L124.617 27.1966V78.1981L115.317 83.5633L71.3018 57.976V7.1568L80.6021 1.78247Z" fill="#E3FFD0" stroke="#2B5859" stroke-width="2" stroke-miterlimit="10"/>
  <path d="M115.317 83.5632V32.5618L71.3018 7.15674" stroke="#2B5859" stroke-width="2" stroke-miterlimit="10"/>
  <path d="M115.316 32.5617L124.617 27.1965" stroke="#2B5859" stroke-width="2" stroke-miterlimit="10"/>
  <path d="M98.2274 61.9661C104.557 59.7496 107.022 50.3433 103.735 40.9564C100.448 31.5695 92.6524 25.7567 86.3232 27.9731C79.9941 30.1896 77.5281 39.5959 80.8154 48.9828C84.1026 58.3697 91.8982 64.1825 98.2274 61.9661Z" fill="#7AC942" stroke="#2B5859" stroke-width="2" stroke-miterlimit="10"/>
  <path d="M87.1515 27.7432C83.4259 31.5963 82.3875 39.093 85.0018 46.5715C88.1444 55.5439 95.4134 61.2553 101.571 59.7978" stroke="#2B5859" stroke-width="2" stroke-miterlimit="10"/>
  <path d="M91.5597 43.3378C92.7257 43.0919 93.1994 41.4705 92.6164 39.7125C92.0334 37.9544 90.6215 36.7338 89.4555 36.9797C88.2896 37.2257 87.8159 38.8471 88.3989 40.6051C88.9819 42.3632 90.3938 43.5838 91.5597 43.3378Z" stroke="#2B5859" stroke-width="2" stroke-miterlimit="10"/>
  <path d="M103.475 50.1423C104.641 49.8963 105.114 48.2749 104.531 46.5169C103.948 44.7589 102.537 43.5382 101.371 43.7842C100.205 44.0301 99.731 45.6515 100.314 47.4096C100.897 49.1676 102.309 50.3882 103.475 50.1423Z" stroke="#2B5859" stroke-width="2" stroke-miterlimit="10"/>
  <path d="M60.729 76.1748C59.9456 76.1748 59.1804 75.7649 58.7523 75.0362C58.1238 73.9431 58.4973 72.5586 59.5903 71.9209L74.1101 63.5406C75.2032 62.9121 76.5878 63.2856 77.2254 64.3787C77.8539 65.4717 77.4805 66.8563 76.3874 67.4939L61.8676 75.8743C61.5123 76.0838 61.1207 76.1748 60.729 76.1748Z" fill="#E3FFD0" stroke="#2B5859" stroke-width="2" stroke-miterlimit="10"/>
  <path d="M48.4858 68.9878C47.7024 68.9878 46.9373 68.5779 46.5091 67.8492C45.8806 66.7561 46.2541 65.3716 47.3472 64.7339L61.867 56.3536C62.96 55.7251 64.3446 56.0986 64.9822 57.1917C65.6108 58.2847 65.2373 59.6693 64.1442 60.3069L49.6244 68.6872C49.2692 68.8967 48.8775 68.9878 48.4858 68.9878Z" fill="#E3FFD0" stroke="#2B5859" stroke-width="2" stroke-miterlimit="10"/>
  <path d="M60.373 89.392C66.2028 86.3405 67.8698 77.2588 63.9984 68.2864C59.8811 58.7401 50.8268 52.382 44.2683 55.3242C43.8128 55.5338 38.2745 58.2665 38.2745 58.2665C32.4448 61.318 30.7778 70.3997 34.6491 79.3721C38.7664 88.9183 47.6022 94.7299 54.3793 92.3342L60.3639 89.392H60.373Z" fill="#E3FFD0" stroke="#2B5859" stroke-width="2" stroke-miterlimit="10"/>
  <path d="M54.3793 92.3343C61.1565 89.9477 63.3062 80.2648 59.1798 70.7095C55.0625 61.1632 45.8806 55.4518 39.1035 57.8384" stroke="#2B5859" stroke-width="2" stroke-miterlimit="10"/>
  <path d="M43.1387 74.0979C42.9292 72.7953 41.1621 72.185 39.1945 72.7315C37.227 73.2781 35.7969 74.7719 35.9972 76.0745C36.1976 77.3771 37.9739 77.9874 39.9415 77.4409C41.909 76.8943 43.3391 75.4005 43.1387 74.0979Z" fill="#E3FFD0" stroke="#2B5859" stroke-width="2" stroke-miterlimit="10"/>
  <path d="M57.0898 76.4389L37.8561 65.3623C37.8561 65.3623 35.597 66.6285 33.4564 67.8946C32.6366 68.3774 28.2187 70.9279 28.1914 74.2709L28.3007 80.9934C28.2825 82.6421 29.3391 84.4913 32.4271 86.3677C41.773 92.0426 50.7362 86.8687 50.7362 86.8687L57.0898 83.1613V76.4389Z" fill="#7AC942" stroke="#2B5859" stroke-width="2" stroke-miterlimit="10"/>
  <path d="M57.0302 76.4389L50.6174 80.1462C50.6174 80.1462 41.6541 85.3202 32.3083 79.6452C29.2203 77.7688 28.1637 75.9288 28.1819 74.28" stroke="#2B5859" stroke-width="2" stroke-miterlimit="10"/>
  <path d="M43.9406 74.6446C44.2139 73.3602 42.7929 72.1487 40.7616 71.9392C38.7303 71.7297 36.8538 72.6133 36.5805 73.8976C36.3073 75.182 37.7283 76.3935 39.7596 76.603C41.7909 76.8125 43.6673 75.9289 43.9406 74.6446Z" fill="#E3FFD0" stroke="#2B5859" stroke-width="2" stroke-miterlimit="10"/>
  <path d="M1.38281 98.2002L30.1582 81.4396C31.2695 80.802 31.8798 81.7311 32.9 82.5054C33.9202 83.2796 33.9111 84.7735 32.7998 85.4111L3.6965 102.217" fill="#E3FFD0"/>
  <path d="M1.38281 98.2002L30.1582 81.4396C31.2695 80.802 31.8798 81.7311 32.9 82.5054C33.9202 83.2796 33.9111 84.7735 32.7998 85.4111L3.6965 102.217" stroke="#2B5859" stroke-width="2" stroke-miterlimit="10"/>
</svg>
